<?xml version="1.0" encoding="UTF-8"?>
<svg id="Layer_1" xmlns="http://www.w3.org/2000/svg" version="1.1" viewBox="0 0 600 600">
  <!-- Generator: Adobe Illustrator 30.0.0, SVG Export Plug-In . SVG Version: 2.1.1 Build 123)  -->
  <defs>
    <style>
      .st0 {
        fill: #3266a4;
      }
    </style>
  </defs>
  <path class="st0" d="M106.22,490.02H10.36l-.04-184.85c11.19-163.31,232.1-211.74,306.42-61.94,23.96,48.3,15.59,99.83,17,152.01h61.62c15.25,0,42.7-13.75,54.75-23.2,66.11-51.86,57.28-158.2-16.28-198.49-9.65-5.28-33.16-14.19-43.74-14.19h-154.31v-91.09c0-.87,2.55-1.86,3.63-1.63,104.05,4.23,201.15-21.64,284.48,55.84,119.18,110.8,69.12,325.47-91.33,362.6-28.65,6.63-85.47,7.76-115.02,4.8-19.71-1.97-43.29-16.57-55.97-31.45-37.98-44.56-20.77-98.07-24.7-151.16-5.18-69.99-100-85.31-125.9-20.47-1.16,2.92-4.76,13.88-4.76,16.3v186.91Z"/>
</svg>